<?xml version="1.0" standalone="no"?><!DOCTYPE svg PUBLIC "-//W3C//DTD SVG 1.1//EN" "http://www.w3.org/Graphics/SVG/1.1/DTD/svg11.dtd"><svg t="1717936859926" class="icon" viewBox="0 0 1024 1024" version="1.1" xmlns="http://www.w3.org/2000/svg" p-id="7635" xmlns:xlink="http://www.w3.org/1999/xlink" width="32" height="32"><path d="M907.8784 779.4688l-0.4096 0.4096c3.8912-2.4576-36.4544 11.264-162.6112-14.1312-82.7392-2.4576-230.6048 1.6384-230.6048 1.6384 0.2048-0.2048 0.4096-0.4096 0.4096-0.6144-7.9872 0.4096-118.3744 11.6736-168.5504 18.2272-29.9008 3.8912-60.0064 7.3728-90.112 9.4208-23.9616 1.6384-48.7424 3.8912-72.2944 0.6144-40.1408-5.3248-65.1264-32.3584-81.5104-70.656 5.3248 2.2528 13.312 3.072 15.5648 6.9632 18.0224 33.5872 50.3808 25.1904 77.0048 22.9376 39.5264-3.072 78.848-12.9024 117.9648-20.0704 45.8752-8.6016 91.9552-16.7936 137.6256-26.2144 12.9024-2.6624 27.648-8.6016 20.2752-26.4192 0.6144-26.4192 2.2528-33.9968-1.6384-50.9952-10.8544-26.624-13.312-18.6368-33.9968-17.6128-54.6816 3.072-108.544-0.4096-160.3584-23.7568-37.4784-16.7936-74.3424-73.1136-78.2336-78.4384-3.8912-5.3248 2.8672-3.8912 4.096-5.7344 4.5056 2.2528 8.8064 3.4816 12.9024 6.5536 4.096 3.072 24.576 22.1184 41.7792 23.7568 59.1872 5.3248 115.712-6.3488 169.7792-29.696 34.816-7.9872 5.5296-4.9152 39.1168-8.192-1.2288-18.6368 5.5296-39.936 4.096-64.3072-0.8192-13.5168 0.2048-27.4432-3.2768-40.3456-1.6384-6.144-11.264-11.264-18.2272-14.1312-10.24-4.5056-21.504-6.5536-34.2016-10.24-127.1808-10.4448-160.9728-28.2624-160.9728-28.2624 2.048-2.6624 6.3488-4.5056 11.6736-5.7344l-4.7104-1.2288s49.5616-4.7104 92.9792-15.1552c23.7568-8.8064 47.104-17.408 69.632-28.0576 70.0416-33.1776 142.9504-54.8864 219.5456-62.2592 33.1776-3.072 78.848 9.216 98.5088 18.2272 19.6608 9.0112 103.0144 89.2928-5.3248 108.9536-13.1072 3.8912-27.4432 6.144-40.96 5.7344-19.6608-0.4096-26.4192 9.4208-27.0336 26.8288-0.4096 13.312-4.9152 28.2624 0 39.1168 5.12 11.0592 18.8416 18.2272 29.696 26.0096 30.5152 21.2992 56.5248 39.936 44.8512 85.8112-5.3248 21.0944-19.2512 31.5392-35.0208 37.888-14.336 5.7344-52.224 9.216-54.0672 16.7936-3.072 12.9024 2.8672 58.1632-1.6384 75.5712 34.2016 0 54.6816-2.8672 87.6544-1.6384 27.648 0.8192 55.0912 3.4816 82.5344 6.3488 14.7456 1.4336 30.72 0.6144 43.6224 8.192 20.6848 7.9872 49.152 24.576 55.7056 57.5488 5.5296 27.648 1.024 37.888-11.264 40.3456z" p-id="7636" fill="#000000"></path></svg>